<?xml version="1.0" encoding="UTF-8" standalone="no"?>
<!DOCTYPE svg PUBLIC "-//W3C//DTD SVG 1.1//EN" "http://www.w3.org/Graphics/SVG/1.1/DTD/svg11.dtd">
<svg width="100%" height="100%" viewBox="0 0 200 200" version="1.1" xmlns="http://www.w3.org/2000/svg" xmlns:xlink="http://www.w3.org/1999/xlink" xml:space="preserve" xmlns:serif="http://www.serif.com/" style="fill-rule:evenodd;clip-rule:evenodd;stroke-linejoin:round;stroke-miterlimit:2;">
    <g transform="matrix(1,0,0,1,0,-236.409)">
        <g id="Logo" transform="matrix(1,0,0,1,0,235.6)">
            <g transform="matrix(1,0,0,1,29.7204,0.823916)">
                <circle cx="70.28" cy="100" r="100" style="fill:rgb(203,243,240);"/>
                <g clip-path="url(#_clip2)">
                    <g transform="matrix(12.7832,0,0,12.7832,-43.0843,-1081.03)">
                        <g transform="matrix(12,0,0,12,4.6934,96.4473)">
                            <path d="M0.354,-0.566L0.256,-0.195C0.255,-0.193 0.254,-0.187 0.252,-0.177C0.246,-0.151 0.239,-0.131 0.232,-0.117C0.227,-0.106 0.218,-0.094 0.207,-0.08C0.216,-0.079 0.227,-0.079 0.239,-0.079C0.267,-0.079 0.291,-0.081 0.31,-0.085C0.328,-0.088 0.346,-0.095 0.362,-0.104C0.379,-0.113 0.394,-0.125 0.408,-0.139C0.435,-0.167 0.456,-0.199 0.47,-0.235C0.485,-0.272 0.492,-0.311 0.492,-0.354C0.492,-0.393 0.486,-0.429 0.475,-0.46C0.463,-0.492 0.447,-0.517 0.426,-0.536C0.405,-0.554 0.381,-0.564 0.354,-0.566ZM0.024,-0.08L0.14,-0.472C0.149,-0.502 0.157,-0.524 0.166,-0.536C0.172,-0.543 0.179,-0.549 0.188,-0.554L0.188,-0.556L0.181,-0.556C0.172,-0.556 0.152,-0.551 0.122,-0.54C0.089,-0.529 0.067,-0.523 0.054,-0.523C0.048,-0.523 0.043,-0.524 0.041,-0.526C0.038,-0.529 0.037,-0.533 0.037,-0.538C0.037,-0.551 0.041,-0.565 0.048,-0.581C0.055,-0.596 0.065,-0.61 0.077,-0.623C0.088,-0.635 0.1,-0.644 0.113,-0.649C0.141,-0.66 0.18,-0.669 0.228,-0.675C0.277,-0.681 0.329,-0.684 0.386,-0.684C0.447,-0.684 0.5,-0.674 0.542,-0.655C0.585,-0.636 0.618,-0.608 0.64,-0.57C0.663,-0.532 0.674,-0.486 0.674,-0.433C0.674,-0.379 0.663,-0.325 0.642,-0.271C0.621,-0.216 0.592,-0.171 0.557,-0.134C0.475,-0.047 0.365,-0.003 0.227,-0.003C0.183,-0.003 0.142,-0.007 0.106,-0.014C0.069,-0.021 0.045,-0.03 0.033,-0.04C0.026,-0.046 0.022,-0.055 0.022,-0.066C0.022,-0.069 0.023,-0.074 0.024,-0.08Z" style="fill:rgb(46,196,182);fill-rule:nonzero;"/>
                        </g>
                    </g>
                </g>
            </g>
        </g>
    </g>
</svg>
